
<!-- Generator: visioncortex VTracer 0.6.4 -->
<svg version="1.1" xmlns="http://www.w3.org/2000/svg" viewBox="0 0 512 512" preserveAspectRatio="xMidYMid meet">
<path d="M0 0 C1.452 0 1.452 0 2.933 0.001 C18.169 0.034 32.672 0.908 47.562 4.375 C48.393 4.557 49.224 4.739 50.08 4.926 C75.475 10.559 100.307 21.362 121.562 36.375 C122.201 36.826 122.84 37.277 123.499 37.742 C132.602 44.236 141.078 51.19 149.106 58.974 C150.487 60.302 151.897 61.599 153.309 62.895 C164.906 73.821 173.2 88.399 173.766 104.598 C174.075 123.421 169.739 139.311 157.137 153.84 C143.961 166.815 127.463 172.796 109.162 172.744 C90.118 172.229 75.75 163.294 62.562 150.375 C45.396 133.67 20.697 124.949 -3.012 125.16 C-34.796 126.327 -64.173 138.493 -86.438 161.375 C-110.649 187.554 -122.098 222.738 -121.586 258.137 C-119.849 296.04 -107.789 330.093 -80.215 356.902 C-56.421 378.085 -24.541 388.33 7.132 386.578 C29.785 384.689 50.347 374.103 65.98 357.863 C79.336 344.993 96.37 338.742 114.781 339.062 C131.155 340.416 144.979 346.65 156.562 358.375 C157.199 358.99 157.836 359.605 158.492 360.238 C169.994 372.175 174.076 388.242 173.912 404.375 C173.408 421.465 166.581 435.412 154.562 447.375 C153.57 448.412 152.579 449.451 151.59 450.492 C113.271 490.359 58.844 511.217 4.121 512.598 C-53.589 513.515 -108.784 492.755 -153.438 456.375 C-153.983 455.933 -154.528 455.49 -155.09 455.034 C-168.787 443.835 -181.698 431.465 -192.438 417.375 C-193.401 416.141 -194.364 414.906 -195.328 413.672 C-202.076 404.944 -208.08 396.016 -213.438 386.375 C-213.869 385.606 -214.301 384.837 -214.746 384.044 C-227.997 360.247 -236.715 335.325 -242.188 308.688 C-242.486 307.247 -242.486 307.247 -242.79 305.778 C-246.011 289.291 -246.814 272.953 -246.75 256.188 C-246.748 255.197 -246.746 254.206 -246.744 253.185 C-246.7 238.73 -246.323 224.585 -243.438 210.375 C-243.261 209.475 -243.084 208.574 -242.901 207.646 C-237.61 181.27 -229.098 156.133 -216.438 132.375 C-215.997 131.537 -215.556 130.7 -215.102 129.837 C-211.587 123.254 -207.731 116.999 -203.562 110.812 C-202.944 109.891 -202.325 108.97 -201.688 108.021 C-197.539 101.891 -193.266 95.991 -188.438 90.375 C-187.539 89.295 -186.642 88.214 -185.746 87.133 C-176.419 75.964 -166.531 65.515 -155.094 56.477 C-153.338 55.088 -151.608 53.666 -149.906 52.211 C-108.784 17.158 -53.412 -0.108 0 0 Z " fill="#E9666B" transform="translate(292.4375,-0.37499999999999994)"/>
<path d="M0 0 C1.452 0 1.452 0 2.933 0.001 C18.169 0.034 32.672 0.908 47.562 4.375 C48.393 4.557 49.224 4.739 50.08 4.926 C75.475 10.559 100.307 21.362 121.562 36.375 C122.201 36.826 122.84 37.277 123.499 37.742 C132.602 44.236 141.078 51.19 149.106 58.974 C150.487 60.302 151.897 61.599 153.309 62.895 C164.906 73.821 173.2 88.399 173.766 104.598 C174.075 123.421 169.739 139.311 157.137 153.84 C143.961 166.815 127.463 172.796 109.162 172.744 C90.118 172.229 75.75 163.294 62.562 150.375 C45.396 133.67 20.697 124.949 -3.012 125.16 C-34.796 126.327 -64.173 138.493 -86.438 161.375 C-110.649 187.554 -122.098 222.738 -121.586 258.137 C-119.849 296.04 -107.789 330.093 -80.215 356.902 C-56.421 378.085 -24.541 388.33 7.132 386.578 C29.785 384.689 50.347 374.103 65.98 357.863 C79.336 344.993 96.37 338.742 114.781 339.062 C131.155 340.416 144.979 346.65 156.562 358.375 C157.199 358.99 157.836 359.605 158.492 360.238 C169.994 372.175 174.076 388.242 173.912 404.375 C173.408 421.465 166.581 435.412 154.562 447.375 C153.57 448.412 152.579 449.451 151.59 450.492 C113.271 490.359 58.844 511.217 4.121 512.598 C-53.589 513.515 -108.784 492.755 -153.438 456.375 C-153.983 455.933 -154.528 455.49 -155.09 455.034 C-168.787 443.835 -181.698 431.465 -192.438 417.375 C-193.401 416.141 -194.364 414.906 -195.328 413.672 C-202.076 404.944 -208.08 396.016 -213.438 386.375 C-213.869 385.606 -214.301 384.837 -214.746 384.044 C-227.997 360.247 -236.715 335.325 -242.188 308.688 C-242.486 307.247 -242.486 307.247 -242.79 305.778 C-246.011 289.291 -246.814 272.953 -246.75 256.188 C-246.748 255.197 -246.746 254.206 -246.744 253.185 C-246.7 238.73 -246.323 224.585 -243.438 210.375 C-243.261 209.475 -243.084 208.574 -242.901 207.646 C-237.61 181.27 -229.098 156.133 -216.438 132.375 C-215.997 131.537 -215.556 130.7 -215.102 129.837 C-211.587 123.254 -207.731 116.999 -203.562 110.812 C-202.944 109.891 -202.325 108.97 -201.688 108.021 C-197.539 101.891 -193.266 95.991 -188.438 90.375 C-187.539 89.295 -186.642 88.214 -185.746 87.133 C-176.419 75.964 -166.531 65.515 -155.094 56.477 C-153.338 55.088 -151.608 53.666 -149.906 52.211 C-108.784 17.158 -53.412 -0.108 0 0 Z M-55.688 24.688 C-57.347 25.149 -57.347 25.149 -59.04 25.62 C-96.193 36.151 -128.527 55.901 -156.438 82.375 C-156.941 82.85 -157.444 83.324 -157.962 83.813 C-165.407 90.879 -171.936 98.373 -178.087 106.585 C-179.409 108.337 -180.758 110.064 -182.113 111.789 C-198.436 132.887 -210.587 157.918 -218.438 183.375 C-218.691 184.197 -218.945 185.019 -219.207 185.866 C-237.986 248.324 -229.979 317.125 -199.438 374.375 C-193.354 385.417 -186.417 395.628 -178.438 405.375 C-177.214 406.904 -177.214 406.904 -175.965 408.465 C-164.872 422.121 -152.339 434.673 -138.156 445.101 C-136.407 446.398 -134.689 447.728 -132.973 449.066 C-117.864 460.696 -100.928 469.854 -83.438 477.375 C-82.736 477.677 -82.035 477.98 -81.312 478.292 C-46.09 493.247 -9.277 497.505 28.562 492.375 C29.426 492.262 30.289 492.149 31.179 492.033 C65.352 487.342 99.695 472.378 125.562 449.375 C126.375 448.671 127.187 447.967 128.023 447.242 C130.578 444.994 133.074 442.696 135.562 440.375 C136.06 439.923 136.557 439.47 137.069 439.004 C147.161 429.772 154.645 419.743 155.898 405.578 C156.044 390.815 151.962 380.073 141.812 369.125 C137.55 365.042 132.982 362.621 127.562 360.375 C126.855 360.055 126.147 359.736 125.418 359.406 C116.502 355.833 105.916 356.169 96.922 359.344 C87.202 363.592 79.986 370.196 72.391 377.449 C60.182 388.789 43.798 397.47 27.562 401.375 C26.114 401.791 26.114 401.791 24.637 402.215 C4.985 407.133 -17.033 405.774 -36.438 400.375 C-37.109 400.193 -37.78 400.011 -38.472 399.824 C-48.747 396.956 -58.099 392.431 -67.438 387.375 C-68.353 386.881 -69.268 386.388 -70.211 385.879 C-96.434 370.9 -113.484 348.091 -126.438 321.375 C-126.974 320.273 -127.51 319.171 -128.062 318.035 C-144.573 281.248 -143.332 235.86 -129.812 198.438 C-123.973 183.184 -116.117 168.751 -105.438 156.375 C-104.652 155.464 -103.867 154.552 -103.059 153.613 C-100.891 151.16 -98.679 148.761 -96.438 146.375 C-95.913 145.786 -95.388 145.197 -94.848 144.59 C-73.454 121.563 -38.68 108.297 -7.805 107.102 C22.335 106.436 50.945 114.727 73.562 135.375 C75.073 136.906 76.573 138.448 78.062 140 C87.473 149.595 97.687 154.414 111.062 154.75 C124.004 154.438 135.323 149.615 144.562 140.375 C153.657 128.422 157.043 116.211 155.562 101.375 C153.074 90.105 146.153 81.42 138.062 73.5 C137.364 72.811 136.665 72.122 135.946 71.412 C125.47 61.234 114.004 52.976 101.562 45.375 C100.443 44.672 100.443 44.672 99.301 43.956 C93.273 40.232 87.133 37.167 80.625 34.375 C79.624 33.945 78.624 33.515 77.593 33.072 C56.783 24.291 34.557 18.284 11.859 18.172 C10.942 18.166 10.024 18.16 9.078 18.155 C7.138 18.145 5.199 18.139 3.259 18.135 C0.362 18.125 -2.533 18.094 -5.43 18.062 C-22.668 17.963 -39.073 19.987 -55.688 24.688 Z " fill="#010000" transform="translate(292.4375,-0.37499999999999994)"/>
<path d="M0 0 C5.287 3.039 5.287 3.039 6.625 6.25 C6.625 16.951 1.48 26.187 -5.816 33.699 C-6.661 34.541 -7.505 35.383 -8.375 36.25 C-9.25 37.185 -10.126 38.119 -11.027 39.082 C-24.405 53.229 -40.416 63.857 -57.375 73.25 C-57.989 73.592 -58.603 73.934 -59.236 74.287 C-68.231 79.175 -77.959 82.301 -87.625 85.562 C-88.271 85.782 -88.917 86.001 -89.582 86.227 C-98.999 89.405 -108.345 92.452 -118.375 92.25 C-121.966 86.19 -123.549 81.32 -122.375 74.25 C-118.6 66.701 -112.757 63.733 -105.188 61 C-103.568 60.388 -101.949 59.774 -100.332 59.156 C-99.508 58.842 -98.684 58.527 -97.834 58.203 C-68.918 46.997 -41.908 28.707 -22.25 4.438 C-16.293 -2.558 -8.218 -3.822 0 0 Z " fill="#E3393F" transform="translate(441.375,398.75)"/>
<path d="M0 0 C2.438 1.562 2.438 1.562 4 4 C4.553 6.777 4.729 9.254 4 12 C0.706 16.381 -4.213 18.359 -9 20.75 C-26.968 29.991 -42.429 42.099 -57 56 C-57.852 56.799 -58.704 57.598 -59.582 58.422 C-79.042 77.177 -96.221 102.844 -105.683 128.115 C-107.328 132.299 -108.871 134.178 -113 136 C-117.054 136.676 -118.475 136.365 -121.875 134 C-124.562 130.206 -124.741 127.457 -124 123 C-122.543 118.881 -120.646 115.026 -118.688 111.125 C-118.144 110.022 -117.6 108.918 -117.039 107.781 C-109.177 92.074 -99.914 77.747 -89 64 C-88.568 63.451 -88.136 62.901 -87.69 62.335 C-76.121 47.75 -62.72 34.197 -47.668 23.219 C-45.982 21.987 -44.319 20.728 -42.656 19.465 C-12.079 -3.419 -12.079 -3.419 0 0 Z " fill="#FEFCFC" transform="translate(208,40)"/>
<path d="M0 0 C1.454 0.99 1.454 0.99 2.938 2 C1.569 12.666 -2.777 23.795 -11.062 31 C-23.341 39.911 -33.833 43.102 -49.062 42 C-55.465 40.61 -61.334 38.728 -66.062 34 C-64.058 28.105 -61.605 24.099 -56.062 21 C-52.845 20.035 -49.637 19.353 -46.344 18.695 C-35.397 16.376 -28.98 11.054 -21.375 3.188 C-15.461 -2.74 -7.472 -4.274 0 0 Z " fill="#E2393F" transform="translate(445.0625,112)"/>
<path d="M0 0 C0.99 0.495 0.99 0.495 2 1 C1.417 1.331 0.835 1.662 0.234 2.003 C-12.486 9.268 -24.585 16.809 -36 26 C-36.549 26.435 -37.098 26.869 -37.663 27.317 C-51.898 38.639 -65.014 51.637 -75.769 66.32 C-76.998 67.997 -78.249 69.655 -79.504 71.312 C-86.51 80.711 -92.285 90.779 -98 101 C-98.66 100.67 -99.32 100.34 -100 100 C-98.545 94.844 -96.235 90.777 -93.375 86.312 C-92.705 85.256 -92.705 85.256 -92.022 84.179 C-76.822 60.426 -57.727 38.763 -35 22 C-34.018 21.267 -34.018 21.267 -33.016 20.52 C-24.985 14.558 -16.785 9.091 -8.062 4.188 C-7.287 3.748 -6.511 3.309 -5.712 2.857 C-3.844 1.837 -1.925 0.908 0 0 Z " fill="#E16A6F" transform="translate(193,41)"/>
<path d="M0 0 C0.66 0.33 1.32 0.66 2 1 C1.417 1.331 0.835 1.662 0.234 2.003 C-13.942 10.1 -27.4 18.534 -39.766 29.23 C-40.364 29.748 -40.963 30.265 -41.58 30.798 C-42.707 31.783 -43.824 32.779 -44.93 33.788 C-46.426 35.113 -46.426 35.113 -49 37 C-49.99 36.67 -50.98 36.34 -52 36 C-39.851 24.187 -25.637 14.468 -11 6 C-9.953 5.389 -8.907 4.778 -7.828 4.148 C-2.219 0.966 -2.219 0.966 0 0 Z " fill="#D9686C" transform="translate(193,41)"/>
<path d="M0 0 C0.99 0.33 1.98 0.66 3 1 C2.573 1.411 2.146 1.823 1.706 2.247 C-6.848 10.528 -14.836 18.854 -21.961 28.402 C-24 31 -24 31 -26 32 C-25.644 26.644 -22.619 23.744 -19.188 19.938 C-18.612 19.286 -18.037 18.635 -17.445 17.965 C-11.878 11.727 -6.006 5.812 0 0 Z " fill="#DA656A" transform="translate(140,78)"/>
<path d="M0 0 C0.766 1.613 0.766 1.613 1 4 C-0.336 6.256 -1.635 8.153 -3.25 10.188 C-3.659 10.733 -4.067 11.279 -4.488 11.842 C-6.583 14.56 -7.678 15.893 -11 17 C-9.529 12.643 -7.169 9.281 -4.375 5.688 C-3.955 5.138 -3.535 4.588 -3.102 4.021 C-2.073 2.677 -1.037 1.338 0 0 Z " fill="#DB6569" transform="translate(113,108)"/>
<path d="M0 0 C0.99 0.33 1.98 0.66 3 1 C-1.62 5.62 -6.24 10.24 -11 15 C-11.33 14.01 -11.66 13.02 -12 12 C-8.04 8.04 -4.08 4.08 0 0 Z " fill="#E57377" transform="translate(140,78)"/>
<path d="M0 0 C0.66 0.33 1.32 0.66 2 1 C1.393 5.86 -0.728 9.741 -3 14 C-3.99 14 -4.98 14 -6 14 C-4.508 9.028 -2.395 4.582 0 0 Z " fill="#D26166" transform="translate(92,140)"/>
<path d="M0 0 C0.66 0.33 1.32 0.66 2 1 C1.25 5.75 1.25 5.75 -1 8 C-1.931 5.394 -2.149 4.358 -1.062 1.75 C-0.712 1.173 -0.361 0.595 0 0 Z " fill="#D8666B" transform="translate(92,140)"/>
<path d="M0 0 C1.208 3.623 0.543 4.641 -1 8 C-1.66 7.67 -2.32 7.34 -3 7 C-2.25 2.25 -2.25 2.25 0 0 Z " fill="#E46B70" transform="translate(87,153)"/>
<path d="M0 0 C0.99 0.33 1.98 0.66 3 1 C1.35 2.98 -0.3 4.96 -2 7 C-2.33 6.01 -2.66 5.02 -3 4 C-1.562 1.812 -1.562 1.812 0 0 Z " fill="#E46B70" transform="translate(117,103)"/>
<path d="M0 0 C-1.393 3.367 -2.979 4.986 -6 7 C-5.372 3.355 -4.147 0 0 0 Z " fill="#E36B70" transform="translate(134,86)"/>
</svg>