
<!-- Generator: visioncortex VTracer 0.6.4 -->
<svg version="1.1" xmlns="http://www.w3.org/2000/svg" viewBox="0 0 512 512" preserveAspectRatio="xMidYMid meet">
<path d="M0 0 C0.945 -0.007 1.89 -0.014 2.863 -0.021 C41.916 -0.247 41.916 -0.247 58.77 3.203 C59.766 3.396 60.763 3.59 61.79 3.789 C110.191 13.353 154.385 35.771 189.77 70.203 C190.773 71.168 190.773 71.168 191.797 72.153 C200.734 80.767 209.137 89.476 216.496 99.485 C217.792 101.233 219.122 102.951 220.461 104.668 C228.325 114.883 234.711 125.84 240.77 137.203 C241.433 138.444 241.433 138.444 242.11 139.709 C253.627 161.613 261.298 185.904 265.77 210.203 C265.93 211.004 266.091 211.804 266.257 212.629 C271.749 240.707 271.503 274.193 265.77 302.203 C265.576 303.2 265.383 304.196 265.184 305.223 C257.065 346.312 239.695 383.406 213.77 416.203 C212.957 417.241 212.145 418.279 211.309 419.348 C198.639 434.914 184.082 449.481 167.77 461.203 C166.6 462.067 165.43 462.931 164.262 463.797 C143.636 478.94 121.027 491.022 96.77 499.203 C95.547 499.616 95.547 499.616 94.3 500.038 C84.529 503.276 74.647 505.808 64.582 507.953 C63.657 508.152 62.733 508.351 61.78 508.555 C45.573 511.848 29.639 512.578 13.145 512.516 C11.617 512.512 11.617 512.512 10.059 512.509 C-4.563 512.459 -18.862 512.154 -33.23 509.203 C-34.243 509.004 -35.256 508.806 -36.299 508.601 C-77.391 500.384 -114.327 482.943 -147.23 457.203 C-147.77 456.784 -148.309 456.365 -148.864 455.933 C-165.104 443.17 -180.175 427.979 -192.23 411.203 C-193.094 410.033 -193.959 408.864 -194.824 407.695 C-209.968 387.069 -222.05 364.46 -230.23 340.203 C-230.644 338.981 -230.644 338.981 -231.065 337.733 C-234.303 327.963 -236.835 318.081 -238.98 308.016 C-239.179 307.091 -239.378 306.166 -239.583 305.214 C-242.875 289.007 -243.606 273.073 -243.543 256.578 C-243.541 255.56 -243.539 254.542 -243.536 253.493 C-243.487 238.868 -243.173 224.575 -240.23 210.203 C-239.94 208.708 -239.94 208.708 -239.645 207.183 C-232.016 168.575 -216.303 132.421 -192.23 101.203 C-191.587 100.368 -190.944 99.532 -190.281 98.672 C-176.197 80.741 -159.854 63.454 -141.23 50.203 C-140.613 49.757 -139.995 49.311 -139.359 48.852 C-99.206 19.979 -49.952 0.249 0 0 Z " fill="#FE5A5A" transform="translate(243.23046875,-0.203125)"/>
<path d="M0 0 C8.121 4.864 14.665 11.265 21.258 17.965 C22.297 19.009 23.336 20.053 24.376 21.096 C27.082 23.813 29.779 26.54 32.474 29.268 C35.238 32.063 38.01 34.848 40.781 37.635 C46.196 43.081 51.601 48.538 57 54 C60.605 52.479 62.858 50.357 65.578 47.57 C66.48 46.651 67.382 45.733 68.311 44.787 C68.789 44.296 69.268 43.804 69.76 43.298 C71.27 41.749 72.788 40.207 74.308 38.667 C78.628 34.289 82.939 29.902 87.234 25.499 C89.866 22.801 92.512 20.116 95.165 17.439 C96.164 16.425 97.159 15.407 98.149 14.383 C108.02 4.183 118.736 -4.132 133.385 -4.381 C148.666 -4.349 159.719 -1.618 171.188 9.031 C181.916 20.248 184.489 31.766 184.273 46.672 C183.685 63.333 173.346 74.127 162.035 85.258 C160.991 86.297 159.947 87.336 158.904 88.376 C156.187 91.082 153.46 93.779 150.732 96.474 C147.937 99.238 145.152 102.01 142.365 104.781 C136.919 110.196 131.462 115.601 126 121 C127.521 124.605 129.643 126.858 132.43 129.578 C133.349 130.48 134.267 131.382 135.213 132.311 C135.704 132.789 136.196 133.268 136.702 133.76 C138.251 135.27 139.793 136.788 141.333 138.308 C145.711 142.628 150.098 146.939 154.501 151.234 C157.199 153.866 159.884 156.512 162.561 159.165 C163.575 160.164 164.593 161.159 165.617 162.149 C176.65 172.826 184.048 183.54 184.431 199.155 C184.468 214.226 180.751 224.994 170.125 235.93 C158.891 246.484 146.069 248.687 131.191 248.375 C115.24 247.572 104.668 235.98 94.059 225.254 C93.041 224.232 92.022 223.211 91.003 222.19 C88.35 219.53 85.704 216.863 83.058 214.195 C80.347 211.463 77.629 208.737 74.912 206.01 C69.602 200.679 64.299 195.341 59 190 C55.387 191.524 53.121 193.658 50.39 196.446 C49.028 197.828 49.028 197.828 47.637 199.239 C47.156 199.732 46.675 200.224 46.179 200.732 C44.66 202.285 43.135 203.831 41.607 205.375 C37.266 209.765 32.936 214.166 28.615 218.577 C25.967 221.279 23.31 223.97 20.646 226.656 C19.64 227.674 18.637 228.696 17.639 229.723 C7.127 240.527 -3.557 248.234 -19.005 248.519 C-19.932 248.513 -20.858 248.507 -21.812 248.5 C-23.265 248.491 -23.265 248.491 -24.747 248.483 C-37.696 248.16 -46.761 243.02 -55.934 234.125 C-66.179 223.197 -68.518 211.309 -68.242 196.863 C-67.63 180.902 -57.763 170.145 -46.816 159.426 C-45.749 158.366 -44.683 157.306 -43.618 156.244 C-40.844 153.485 -38.057 150.738 -35.268 147.994 C-32.412 145.178 -29.567 142.351 -26.721 139.525 C-21.158 134.006 -15.583 128.499 -10 123 C-11.524 119.387 -13.658 117.121 -16.446 114.39 C-17.368 113.482 -18.289 112.573 -19.239 111.637 C-19.732 111.156 -20.224 110.675 -20.732 110.179 C-22.285 108.66 -23.831 107.135 -25.375 105.607 C-29.765 101.266 -34.166 96.936 -38.577 92.615 C-41.279 89.967 -43.97 87.31 -46.656 84.646 C-47.674 83.64 -48.696 82.637 -49.723 81.639 C-60.781 70.88 -68.211 60.061 -68.519 44.263 C-68.513 43.392 -68.507 42.522 -68.5 41.625 C-68.494 40.708 -68.489 39.791 -68.483 38.847 C-68.127 25.308 -61.964 15.484 -52.312 6.312 C-38.037 -5.696 -16.792 -8.199 0 0 Z " fill="#000000" transform="translate(198,134)"/>
<path d="M0 0 C0.945 -0.007 1.89 -0.014 2.863 -0.021 C41.916 -0.247 41.916 -0.247 58.77 3.203 C59.766 3.396 60.763 3.59 61.79 3.789 C110.191 13.353 154.385 35.771 189.77 70.203 C190.773 71.168 190.773 71.168 191.797 72.153 C200.734 80.767 209.137 89.476 216.496 99.485 C217.792 101.233 219.122 102.951 220.461 104.668 C228.325 114.883 234.711 125.84 240.77 137.203 C241.433 138.444 241.433 138.444 242.11 139.709 C253.627 161.613 261.298 185.904 265.77 210.203 C265.93 211.004 266.091 211.804 266.257 212.629 C271.749 240.707 271.503 274.193 265.77 302.203 C265.576 303.2 265.383 304.196 265.184 305.223 C257.065 346.312 239.695 383.406 213.77 416.203 C212.957 417.241 212.145 418.279 211.309 419.348 C198.639 434.914 184.082 449.481 167.77 461.203 C166.6 462.067 165.43 462.931 164.262 463.797 C143.636 478.94 121.027 491.022 96.77 499.203 C95.547 499.616 95.547 499.616 94.3 500.038 C84.529 503.276 74.647 505.808 64.582 507.953 C63.657 508.152 62.733 508.351 61.78 508.555 C45.573 511.848 29.639 512.578 13.145 512.516 C11.617 512.512 11.617 512.512 10.059 512.509 C-4.563 512.459 -18.862 512.154 -33.23 509.203 C-34.243 509.004 -35.256 508.806 -36.299 508.601 C-77.391 500.384 -114.327 482.943 -147.23 457.203 C-147.77 456.784 -148.309 456.365 -148.864 455.933 C-165.104 443.17 -180.175 427.979 -192.23 411.203 C-193.094 410.033 -193.959 408.864 -194.824 407.695 C-209.968 387.069 -222.05 364.46 -230.23 340.203 C-230.644 338.981 -230.644 338.981 -231.065 337.733 C-234.303 327.963 -236.835 318.081 -238.98 308.016 C-239.179 307.091 -239.378 306.166 -239.583 305.214 C-242.875 289.007 -243.606 273.073 -243.543 256.578 C-243.541 255.56 -243.539 254.542 -243.536 253.493 C-243.487 238.868 -243.173 224.575 -240.23 210.203 C-239.94 208.708 -239.94 208.708 -239.645 207.183 C-232.016 168.575 -216.303 132.421 -192.23 101.203 C-191.587 100.368 -190.944 99.532 -190.281 98.672 C-176.197 80.741 -159.854 63.454 -141.23 50.203 C-140.613 49.757 -139.995 49.311 -139.359 48.852 C-99.206 19.979 -49.952 0.249 0 0 Z M-136.23 86.203 C-137.121 86.984 -138.012 87.765 -138.93 88.57 C-148.226 96.799 -156.568 105.427 -164.23 115.203 C-164.938 116.094 -165.646 116.985 -166.375 117.902 C-179.123 134.372 -188.779 152.206 -197.23 171.203 C-197.721 172.302 -197.721 172.302 -198.222 173.423 C-220.098 223.573 -218.38 285.165 -199.246 335.809 C-191.712 354.841 -182.43 372.75 -170.23 389.203 C-169.556 390.113 -169.556 390.113 -168.867 391.042 C-162.2 399.943 -154.919 408.176 -147.23 416.203 C-146.521 416.953 -145.812 417.704 -145.082 418.477 C-107.252 457.541 -50.068 481.382 3.957 482.516 C7.124 482.56 10.29 482.576 13.457 482.578 C14.568 482.581 14.568 482.581 15.702 482.584 C30.257 482.58 44.589 481.308 58.77 477.891 C59.698 477.671 60.627 477.452 61.584 477.226 C64.317 476.569 67.044 475.892 69.77 475.203 C70.899 474.919 70.899 474.919 72.051 474.629 C98.518 467.812 123.887 455.522 145.77 439.203 C146.373 438.755 146.977 438.306 147.6 437.844 C156.504 431.175 164.74 423.894 172.77 416.203 C173.52 415.494 174.27 414.785 175.043 414.055 C188.323 401.194 199.631 385.231 208.77 369.203 C209.149 368.545 209.529 367.886 209.92 367.208 C220.762 348.201 228.775 327.508 233.77 306.203 C234.063 304.96 234.357 303.718 234.66 302.438 C247.042 245.385 235.369 183.76 203.949 134.703 C201.344 130.778 198.596 126.971 195.77 123.203 C195.323 122.602 194.876 122.001 194.415 121.382 C187.745 112.474 180.463 104.235 172.77 96.203 C172.061 95.453 171.352 94.703 170.621 93.93 C140.494 62.819 99.383 43.884 57.77 34.203 C57.008 34.025 56.246 33.846 55.461 33.663 C41.612 30.654 27.589 29.79 13.457 29.828 C12.685 29.829 11.912 29.829 11.116 29.83 C-43.114 30.003 -95.762 49.998 -136.23 86.203 Z " fill="#000000" transform="translate(243.23046875,-0.203125)"/>
<path d="M0 0 C4.191 2.19 7.271 4.925 10.545 8.298 C11.128 8.882 11.711 9.467 12.312 10.068 C14.217 11.981 16.106 13.906 17.997 15.833 C19.325 17.171 20.654 18.508 21.984 19.844 C25.467 23.348 28.938 26.864 32.407 30.382 C37.977 36.027 43.565 41.654 49.152 47.282 C51.101 49.249 53.047 51.221 54.991 53.193 C56.178 54.394 57.366 55.594 58.553 56.794 C59.094 57.345 59.635 57.897 60.193 58.464 C64.082 62.388 65.913 63.522 71.411 63.665 C72.344 63.702 73.277 63.739 74.239 63.778 C80.438 62.874 84.732 58.058 88.947 53.729 C89.491 53.179 90.035 52.629 90.596 52.062 C91.768 50.875 92.939 49.686 94.107 48.495 C95.961 46.606 97.822 44.725 99.685 42.845 C104.978 37.503 110.261 32.15 115.534 26.787 C118.768 23.5 122.011 20.222 125.261 16.95 C126.492 15.707 127.719 14.46 128.942 13.209 C130.657 11.455 132.385 9.714 134.115 7.975 C134.61 7.463 135.105 6.95 135.615 6.423 C140.18 1.882 145.23 -1.229 151.661 -2.148 C157.605 -1.299 162.274 0.8 166.098 5.54 C169.008 10.181 169.889 14.9 168.754 20.283 C165.455 28.975 158.18 34.934 151.68 41.286 C150.342 42.612 149.005 43.94 147.669 45.268 C144.167 48.746 140.651 52.208 137.131 55.667 C132.156 60.561 127.202 65.474 122.245 70.386 C119.608 72.999 116.966 75.606 114.319 78.208 C113.119 79.392 111.919 80.576 110.719 81.76 C110.167 82.3 109.616 82.839 109.048 83.396 C105.12 87.278 103.991 89.106 103.848 94.602 C103.811 95.535 103.773 96.469 103.735 97.43 C104.638 103.63 109.455 107.923 113.784 112.139 C114.334 112.683 114.884 113.227 115.451 113.787 C116.638 114.96 117.827 116.13 119.018 117.298 C120.906 119.152 122.788 121.013 124.667 122.876 C130.01 128.17 135.363 133.452 140.726 138.725 C144.013 141.959 147.291 145.203 150.563 148.452 C151.806 149.683 153.053 150.91 154.304 152.133 C156.058 153.849 157.799 155.576 159.538 157.307 C160.05 157.801 160.562 158.296 161.09 158.806 C165.631 163.371 168.742 168.421 169.661 174.852 C168.85 180.524 166.834 184.722 162.723 188.727 C157.779 191.862 154.073 192.953 148.161 192.352 C142.37 190.188 138.151 186.909 133.9 182.514 C133.33 181.941 132.76 181.368 132.172 180.778 C130.31 178.903 128.462 177.014 126.614 175.126 C125.313 173.812 124.011 172.5 122.709 171.189 C119.295 167.749 115.893 164.298 112.494 160.844 C107.043 155.306 101.579 149.782 96.107 144.265 C94.202 142.338 92.303 140.405 90.404 138.472 C89.238 137.291 88.071 136.111 86.904 134.932 C86.379 134.393 85.854 133.855 85.314 133.301 C81.032 128.992 77.989 127.059 71.911 126.79 C71.019 126.726 70.127 126.663 69.208 126.598 C60.647 128.716 53.657 138.786 47.589 144.971 C45.245 147.357 42.891 149.734 40.538 152.112 C36.174 156.521 31.815 160.934 27.472 165.364 C24.432 168.462 21.381 171.549 18.321 174.627 C17.165 175.794 16.014 176.966 14.868 178.143 C1.351 192.008 1.351 192.008 -7.263 192.487 C-12.793 192.305 -17.032 190.347 -20.839 186.352 C-24.209 181.596 -25.677 177.219 -24.839 171.352 C-22.619 165.57 -19.411 161.357 -15.001 157.091 C-14.428 156.521 -13.855 155.951 -13.265 155.363 C-11.39 153.501 -9.501 151.654 -7.613 149.805 C-6.299 148.504 -4.987 147.203 -3.676 145.9 C-0.236 142.487 3.215 139.085 6.669 135.686 C12.207 130.235 17.73 124.77 23.248 119.299 C25.174 117.393 27.107 115.494 29.041 113.596 C30.221 112.429 31.401 111.262 32.581 110.095 C33.388 109.308 33.388 109.308 34.212 108.505 C38.521 104.223 40.454 101.181 40.723 95.102 C40.786 94.21 40.85 93.318 40.915 92.399 C38.796 83.838 28.727 76.848 22.542 70.781 C20.155 68.437 17.778 66.083 15.401 63.729 C10.992 59.366 6.579 55.006 2.149 50.663 C-0.95 47.624 -4.036 44.572 -7.114 41.512 C-8.282 40.357 -9.453 39.206 -10.63 38.06 C-24.583 24.457 -24.583 24.457 -24.942 15.897 C-24.707 10.793 -23.207 7.265 -19.839 3.352 C-13.554 -1.394 -7.456 -3.654 0 0 Z " fill="#E4EDEC" transform="translate(183.83926391601563,160.6479034423828)"/>
</svg>