
<!-- Generator: visioncortex VTracer 0.6.4 -->
<svg version="1.1" xmlns="http://www.w3.org/2000/svg" viewBox="0 0 512 512" preserveAspectRatio="xMidYMid meet">
<path d="M0 0 C6.496 6.292 9.545 14.058 9.875 23 C9.92 36.336 0.785 49.414 -5.163 60.925 C-7.754 65.94 -10.332 70.962 -12.91 75.984 C-13.42 76.977 -13.931 77.97 -14.457 78.993 C-19.306 88.438 -24.062 97.929 -28.767 107.447 C-31.957 113.877 -35.246 120.243 -38.605 126.586 C-43.839 136.476 -48.841 146.476 -53.812 156.5 C-58.705 166.365 -63.622 176.208 -68.781 185.938 C-74.136 196.037 -79.232 206.26 -84.312 216.5 C-89.787 227.534 -95.317 238.526 -101.088 249.409 C-105.821 258.36 -110.314 267.429 -114.812 276.5 C-120.111 287.185 -125.476 297.82 -131.062 308.358 C-135.803 317.327 -140.306 326.412 -144.812 335.5 C-150.111 346.185 -155.476 356.82 -161.062 367.358 C-165.803 376.327 -170.306 385.412 -174.812 394.5 C-180.161 405.285 -185.579 416.018 -191.219 426.653 C-193.834 431.599 -196.369 436.575 -198.824 441.602 C-199.133 442.232 -199.442 442.862 -199.76 443.511 C-200.988 446.02 -202.214 448.53 -203.425 451.047 C-209.383 463.403 -214.945 473.663 -228.188 478.812 C-237.999 480.673 -246.582 479.495 -255.109 474.027 C-261.315 469.093 -265.25 462.283 -266.812 454.5 C-267.618 442.824 -262.479 433.255 -257.309 423.066 C-256.664 421.781 -256.019 420.496 -255.376 419.21 C-253.685 415.839 -251.985 412.473 -250.283 409.107 C-248.921 406.41 -247.566 403.71 -246.212 401.009 C-240.013 388.649 -233.77 376.317 -227.285 364.103 C-222.632 355.318 -218.23 346.407 -213.812 337.5 C-208.514 326.815 -203.149 316.18 -197.562 305.642 C-192.822 296.673 -188.319 287.588 -183.812 278.5 C-178.514 267.815 -173.149 257.18 -167.562 246.642 C-162.822 237.673 -158.319 228.588 -153.812 219.5 C-148.514 208.815 -143.149 198.18 -137.562 187.642 C-132.822 178.673 -128.319 169.588 -123.812 160.5 C-118.92 150.635 -114.003 140.792 -108.844 131.062 C-103.489 120.963 -98.393 110.74 -93.312 100.5 C-87.84 89.47 -82.312 78.483 -76.542 67.605 C-73.54 61.928 -70.634 56.208 -67.777 50.457 C-67.362 49.622 -66.948 48.786 -66.52 47.926 C-64.839 44.537 -63.161 41.146 -61.487 37.753 C-57.129 28.929 -52.725 20.141 -47.953 11.531 C-47.597 10.881 -47.241 10.23 -46.875 9.559 C-42.432 1.677 -36.268 -3.528 -27.562 -6.188 C-17.498 -7.331 -8.367 -6.229 0 0 Z " fill="#000000" transform="translate(383.8125,19.5)"/>
<path d="M0 0 C2.759 2.188 5.374 4.464 7.969 6.844 C8.453 7.28 8.937 7.717 9.436 8.167 C28.757 25.751 42.556 51.908 44.176 78.205 C44.272 81.837 44.298 85.46 44.281 89.094 C44.274 91.021 44.274 91.021 44.266 92.987 C44.155 101.992 43.543 110.172 40.969 118.844 C40.64 120.04 40.311 121.236 39.973 122.469 C35.702 136.656 28.865 149.778 18.969 160.844 C18.283 161.66 17.597 162.476 16.891 163.316 C-2.018 185.32 -28.318 198.085 -57.031 200.844 C-87.736 202.673 -117.656 193.798 -140.898 173.188 C-148.205 166.41 -154.823 159.385 -160.031 150.844 C-160.901 149.481 -160.901 149.481 -161.789 148.09 C-171.654 132.055 -177.329 113.692 -178.031 94.844 C-178.071 94.1 -178.111 93.356 -178.152 92.59 C-178.975 63.977 -168.644 35.925 -149.086 14.984 C-148.408 14.278 -147.73 13.572 -147.031 12.844 C-146.206 11.978 -145.381 11.111 -144.531 10.219 C-143.706 9.435 -142.881 8.651 -142.031 7.844 C-141.423 7.252 -140.814 6.66 -140.188 6.051 C-101.995 -29.72 -41.499 -29.52 0 0 Z M-107.031 56.844 C-116.943 70.049 -119.344 82.723 -118.031 98.844 C-116.108 111.119 -108.503 122.981 -98.801 130.594 C-86.397 139.134 -73.414 143.166 -58.219 141.406 C-44.958 138.814 -32.344 131.157 -24.512 120.176 C-16.158 107.017 -12.662 93.918 -15.719 78.34 C-19.973 63.327 -28.711 51.885 -42.031 43.844 C-64.697 31.616 -90.118 38.267 -107.031 56.844 Z " fill="#000000" transform="translate(468.03125,265.15625)"/>
<path d="M0 0 C8.839 7.318 16.812 15.673 22.797 25.488 C23.377 26.397 23.957 27.305 24.555 28.242 C34.419 44.277 40.094 62.639 40.797 81.488 C40.837 82.232 40.877 82.975 40.918 83.742 C41.741 112.354 31.41 140.406 11.852 161.347 C11.174 162.054 10.495 162.76 9.797 163.488 C8.972 164.354 8.147 165.22 7.297 166.113 C6.472 166.897 5.647 167.68 4.797 168.488 C4.188 169.079 3.58 169.671 2.953 170.281 C-19.823 191.613 -49.544 198.515 -79.867 197.667 C-103.894 196.376 -127.551 185.679 -145.203 169.488 C-145.687 169.051 -146.172 168.615 -146.67 168.165 C-165.992 150.581 -179.79 124.423 -181.41 98.127 C-181.507 94.495 -181.532 90.871 -181.516 87.238 C-181.511 85.953 -181.506 84.668 -181.501 83.345 C-181.389 74.339 -180.777 66.159 -178.203 57.488 C-177.874 56.292 -177.546 55.095 -177.207 53.863 C-172.936 39.676 -166.099 26.553 -156.203 15.488 C-155.517 14.672 -154.832 13.856 -154.125 13.015 C-115.053 -32.451 -46.313 -36.284 0 0 Z M-105.328 47.488 C-116.315 58.161 -122.082 71.593 -122.578 86.738 C-122.35 101 -116.756 113.168 -107.18 123.609 C-95.987 134.249 -82.817 139.036 -67.535 138.734 C-52.459 137.62 -40.29 130.566 -30.203 119.488 C-20.291 106.283 -17.89 93.608 -19.203 77.488 C-21.126 65.212 -28.731 53.35 -38.434 45.738 C-59.669 31.118 -84.958 31.047 -105.328 47.488 Z " fill="#000000" transform="translate(181.203125,70.51220703125)"/>
</svg>