
<!-- Generator: visioncortex VTracer 0.6.4 -->
<svg version="1.1" xmlns="http://www.w3.org/2000/svg" viewBox="0 0 512 512" preserveAspectRatio="xMidYMid meet">
<path d="M0 0 C5.146 3.911 9.01 8.347 10.34 14.738 C11.073 22.806 8.881 28.279 5.314 35.368 C4.827 36.359 4.341 37.351 3.839 38.372 C2.19 41.724 0.523 45.067 -1.145 48.41 C-2.343 50.836 -3.541 53.263 -4.737 55.69 C-8.502 63.315 -12.292 70.927 -16.084 78.538 C-17.654 81.689 -19.223 84.841 -20.791 87.993 C-35.637 117.823 -50.511 147.639 -65.391 177.452 C-67.319 181.316 -69.248 185.179 -71.176 189.043 C-71.895 190.483 -71.895 190.483 -72.628 191.952 C-80.415 207.557 -88.189 223.169 -95.957 238.784 C-103.954 254.857 -111.964 270.923 -119.987 286.982 C-124.483 295.983 -128.973 304.987 -133.448 313.999 C-137.251 321.658 -141.066 329.311 -144.897 336.956 C-146.849 340.853 -148.796 344.753 -150.727 348.661 C-152.496 352.241 -154.281 355.812 -156.08 359.377 C-156.726 360.665 -157.366 361.955 -157.999 363.249 C-162.149 371.72 -166.315 378.321 -174.812 382.824 C-181.47 384.497 -188.277 384.279 -194.289 380.82 C-199.435 376.909 -203.299 372.474 -204.629 366.082 C-205.362 358.014 -203.17 352.541 -199.603 345.452 C-199.116 344.461 -198.63 343.47 -198.128 342.448 C-196.479 339.096 -194.812 335.753 -193.145 332.41 C-191.946 329.984 -190.748 327.558 -189.552 325.131 C-185.787 317.506 -181.997 309.893 -178.205 302.282 C-176.635 299.131 -175.066 295.979 -173.498 292.828 C-158.652 262.997 -143.778 233.181 -128.898 203.368 C-126.97 199.505 -125.041 195.641 -123.113 191.777 C-122.634 190.817 -122.155 189.857 -121.661 188.868 C-113.874 173.263 -106.1 157.651 -98.332 142.037 C-90.335 125.964 -82.325 109.898 -74.302 93.838 C-69.806 84.837 -65.316 75.833 -60.841 66.821 C-57.038 59.162 -53.223 51.509 -49.392 43.865 C-47.44 39.967 -45.493 36.067 -43.562 32.159 C-41.793 28.58 -40.008 25.008 -38.209 21.443 C-37.563 20.156 -36.923 18.865 -36.29 17.571 C-32.14 9.101 -27.974 2.5 -19.477 -2.004 C-12.819 -3.677 -6.012 -3.458 0 0 Z " fill="#064279" transform="translate(353.14453125,65.58984375)"/>
<path d="M0 0 C1.194 -0.017 2.387 -0.034 3.617 -0.051 C9.966 0.607 14.07 3.51 18.125 8.312 C21.737 13.972 22.706 18.777 22.664 25.414 C22.676 26.254 22.688 27.094 22.7 27.96 C22.735 30.619 22.744 33.278 22.75 35.938 C22.766 38.604 22.789 41.27 22.822 43.937 C22.841 45.588 22.851 47.24 22.849 48.892 C22.889 53.33 22.935 57.345 25.125 61.312 C30.319 63.612 35.546 63.606 41.129 63.621 C42.856 63.646 44.583 63.672 46.311 63.697 C49.005 63.726 51.7 63.75 54.394 63.769 C57.014 63.791 59.634 63.83 62.254 63.871 C63.054 63.871 63.854 63.871 64.679 63.871 C70.859 63.98 74.919 65.475 79.75 69.5 C84.833 75.519 86.845 80.679 86.504 88.637 C85.535 95.482 82.223 99.75 77.004 104.086 C71.79 107.49 67.101 107.606 61.062 107.621 C59.279 107.646 57.495 107.672 55.711 107.697 C52.913 107.726 50.115 107.75 47.317 107.769 C44.607 107.79 41.898 107.83 39.188 107.871 C38.354 107.871 37.521 107.871 36.662 107.871 C32.035 107.95 28.821 108.22 25.125 111.312 C22.219 114.977 22.846 119.716 22.852 124.172 C22.831 125.945 22.81 127.719 22.789 129.492 C22.767 132.274 22.75 135.056 22.744 137.839 C22.735 140.534 22.701 143.227 22.664 145.922 C22.669 146.743 22.674 147.564 22.679 148.41 C22.568 155.046 20.748 160.273 16.379 165.336 C15.821 165.782 15.263 166.228 14.688 166.688 C13.854 167.38 13.854 167.38 13.004 168.086 C7.333 171.788 1.717 172.16 -4.875 171.312 C-12 169.055 -16.18 165.748 -19.875 159.312 C-21.138 155.525 -21.069 151.937 -21.121 147.988 C-21.154 146.303 -21.187 144.617 -21.221 142.932 C-21.268 140.283 -21.312 137.635 -21.352 134.987 C-21.392 132.424 -21.443 129.863 -21.496 127.301 C-21.505 126.52 -21.513 125.74 -21.522 124.936 C-21.636 119.775 -22.034 115.167 -23.875 110.312 C-28.413 107.698 -33.525 108.047 -38.641 108.074 C-40.353 108.059 -42.065 108.042 -43.777 108.025 C-46.448 108.009 -49.117 108 -51.788 108.007 C-71.68 108.027 -71.68 108.027 -78.875 102.312 C-84.738 96.053 -85.282 90.112 -85.223 81.84 C-84.602 75.545 -81.827 72.122 -77.312 67.938 C-76.508 67.401 -75.704 66.865 -74.875 66.312 C-74.344 65.955 -73.812 65.598 -73.265 65.23 C-69.649 63.842 -66.02 64.014 -62.199 64.004 C-60.467 63.979 -58.734 63.953 -57.002 63.928 C-54.283 63.899 -51.565 63.875 -48.846 63.856 C-46.213 63.834 -43.582 63.795 -40.949 63.754 C-39.743 63.754 -39.743 63.754 -38.512 63.754 C-33.258 63.662 -29.405 63.085 -24.875 60.312 C-21.664 55.07 -21.468 50.413 -21.539 44.379 C-21.527 42.661 -21.514 40.943 -21.5 39.225 C-21.496 36.548 -21.5 33.871 -21.515 31.194 C-21.523 28.588 -21.501 25.984 -21.477 23.379 C-21.49 22.589 -21.503 21.799 -21.517 20.985 C-21.438 14.97 -19.61 11.009 -15.875 6.312 C-10.738 1.552 -7.013 0.023 0 0 Z " fill="#0A66BB" transform="translate(148.875,63.6875)"/>
<path d="M0 0 C1.162 -0.01 2.324 -0.02 3.521 -0.03 C4.787 -0.031 6.053 -0.032 7.358 -0.032 C8.712 -0.04 10.066 -0.048 11.42 -0.057 C15.091 -0.079 18.763 -0.088 22.435 -0.093 C24.732 -0.097 27.03 -0.103 29.327 -0.11 C37.353 -0.135 45.378 -0.148 53.404 -0.151 C60.868 -0.155 68.331 -0.185 75.794 -0.227 C82.215 -0.262 88.635 -0.277 95.056 -0.278 C98.885 -0.278 102.713 -0.287 106.542 -0.316 C110.148 -0.342 113.754 -0.344 117.36 -0.328 C119.3 -0.325 121.239 -0.347 123.179 -0.37 C130.837 -0.307 136.854 0.757 143.189 5.274 C149.037 11.432 149.658 17.494 149.599 25.68 C148.907 31.744 146.132 35.748 141.56 39.673 C137.264 42.709 133.662 43.4 128.516 43.415 C126.743 43.423 126.743 43.423 124.934 43.432 C123.636 43.433 122.338 43.434 121 43.435 C119.62 43.44 118.241 43.445 116.861 43.45 C113.111 43.463 109.361 43.47 105.61 43.474 C103.267 43.477 100.924 43.481 98.58 43.486 C91.247 43.5 83.914 43.509 76.581 43.513 C68.119 43.518 59.656 43.535 51.194 43.564 C44.651 43.586 38.108 43.596 31.565 43.597 C27.658 43.598 23.751 43.604 19.844 43.622 C16.168 43.638 12.492 43.641 8.815 43.632 C6.827 43.631 4.839 43.644 2.85 43.659 C1.66 43.653 0.47 43.647 -0.757 43.642 C-1.787 43.643 -2.817 43.645 -3.879 43.646 C-9.89 42.884 -13.978 39.813 -17.811 35.274 C-21.995 29.291 -22.829 23.46 -21.811 16.274 C-20.014 10.095 -16.153 5.761 -10.811 2.274 C-7.072 0.517 -4.119 0.019 0 0 Z " fill="#031E36" transform="translate(298.8109588623047,340.72584533691406)"/>
</svg>